<svg width="157" height="33" viewBox="0 0 157 33" fill="none" xmlns="http://www.w3.org/2000/svg">
<path d="M28.6481 14.051C28.7784 13.3999 28.2575 12.6186 27.6064 12.6186L20.1839 11.5769L16.7982 4.8055C16.668 4.54506 16.5378 4.41484 16.2774 4.28462C15.6263 3.89397 14.8449 4.1544 14.4543 4.8055L11.1988 11.5769L3.77634 12.6186C3.38568 12.6186 3.12525 12.7488 2.99503 13.0093C2.47415 13.5302 2.47415 14.3115 2.99503 14.8323L8.334 20.0411L7.03181 27.4636C7.03181 27.724 7.03181 27.9845 7.16203 28.2449C7.55269 28.896 8.334 29.1564 8.98509 28.7658L15.6263 25.2499L22.2674 28.7658C22.3976 28.896 22.6581 28.896 22.9185 28.896H23.1789C23.83 28.7658 24.3509 28.1147 24.2207 27.3334L22.9185 19.9109L28.2575 14.7021C28.5179 14.5719 28.6481 14.3115 28.6481 14.051Z" fill="#D31894"/>
<path d="M59.9006 14.051C60.0309 13.3999 59.51 12.6186 58.8589 12.6186L51.4364 11.5769L48.0507 4.8055C47.9205 4.54506 47.7903 4.41484 47.5299 4.28462C46.8788 3.89397 46.0974 4.1544 45.7068 4.8055L42.4513 11.5769L35.0288 12.6186C34.6382 12.6186 34.3777 12.7488 34.2475 13.0093C33.7267 13.5302 33.7267 14.3115 34.2475 14.8323L39.5865 20.0411L38.2843 27.4636C38.2843 27.724 38.2843 27.9845 38.4145 28.2449C38.8052 28.896 39.5865 29.1564 40.2376 28.7658L46.8788 25.2499L53.5199 28.7658C53.6501 28.896 53.9106 28.896 54.171 28.896H54.4315C55.0825 28.7658 55.6034 28.1147 55.4732 27.3334L54.171 19.9109L59.51 14.7021C59.7704 14.5719 59.9006 14.3115 59.9006 14.051Z" fill="#D31894"/>
<path d="M91.1532 14.051C91.2834 13.3999 90.7626 12.6186 90.1115 12.6186L82.689 11.5769L79.3033 4.8055C79.1731 4.54506 79.0429 4.41484 78.7824 4.28462C78.1313 3.89397 77.35 4.1544 76.9594 4.8055L73.7039 11.5769L66.2814 12.6186C65.8907 12.6186 65.6303 12.7488 65.5001 13.0093C64.9792 13.5302 64.9792 14.3115 65.5001 14.8323L70.8391 20.0411L69.5369 27.4636C69.5369 27.724 69.5369 27.9845 69.6671 28.2449C70.0578 28.896 70.8391 29.1564 71.4902 28.7658L78.1313 25.2499L84.7725 28.7658C84.9027 28.896 85.1631 28.896 85.4236 28.896H85.684C86.3351 28.7658 86.856 28.1147 86.7258 27.3334L85.4236 19.9109L90.7626 14.7021C91.023 14.5719 91.1532 14.3115 91.1532 14.051Z" fill="#D31894"/>
<path d="M122.406 14.051C122.536 13.3999 122.015 12.6186 121.364 12.6186L113.941 11.5769L110.556 4.8055C110.426 4.54506 110.295 4.41484 110.035 4.28462C109.384 3.89397 108.603 4.1544 108.212 4.8055L104.956 11.5769L97.5339 12.6186C97.1433 12.6186 96.8828 12.7488 96.7526 13.0093C96.2317 13.5302 96.2317 14.3115 96.7526 14.8323L102.092 20.0411L100.789 27.4636C100.789 27.724 100.789 27.9845 100.92 28.2449C101.31 28.896 102.092 29.1564 102.743 28.7658L109.384 25.2499L116.025 28.7658C116.155 28.896 116.416 28.896 116.676 28.896H116.937C117.588 28.7658 118.108 28.1147 117.978 27.3334L116.676 19.9109L122.015 14.7021C122.275 14.5719 122.406 14.3115 122.406 14.051Z" fill="#D31894"/>
<path d="M153.658 14.051C153.788 13.3999 153.268 12.6186 152.617 12.6186L145.194 11.5769L141.808 4.8055C141.678 4.54506 141.548 4.41484 141.287 4.28462C140.636 3.89397 139.855 4.1544 139.464 4.8055L136.209 11.5769L128.786 12.6186C128.396 12.6186 128.135 12.7488 128.005 13.0093C127.484 13.5302 127.484 14.3115 128.005 14.8323L133.344 20.0411L132.042 27.4636C132.042 27.724 132.042 27.9845 132.172 28.2449C132.563 28.896 133.344 29.1564 133.995 28.7658L140.636 25.2499L147.278 28.7658C147.408 28.896 147.668 28.896 147.929 28.896H148.189C148.84 28.7658 149.361 28.1147 149.231 27.3334L147.929 19.9109L153.268 14.7021C153.528 14.5719 153.658 14.3115 153.658 14.051Z" fill="#D31894"/>
</svg>
